<?xml version="1.0" encoding="UTF-8"?><svg id="Layer_1" xmlns="http://www.w3.org/2000/svg" viewBox="0 0 832 234"><defs><style>.cls-1{fill:#090b33;}.cls-2{fill:#6e8ef4;}.cls-3{fill:#6bead1;}.cls-4{fill:#81f2dc;}.cls-5{fill:#4d72fc;}</style></defs><path class="cls-1" d="m280.26,112.71c-1.99-1.61-3.97-2.81-5.95-3.58-1.99-.77-3.91-1.16-5.77-1.16-2.35,0-4.28.56-5.77,1.67-1.49,1.12-2.23,2.57-2.23,4.37,0,1.24.37,2.26,1.12,3.07.74.81,1.72,1.5,2.93,2.09,1.21.59,2.57,1.1,4.09,1.54,1.52.44,3.02.9,4.51,1.4,5.95,1.98,10.31,4.63,13.07,7.95,2.76,3.32,4.14,7.64,4.14,12.97,0,3.6-.6,6.85-1.81,9.77-1.21,2.92-2.97,5.41-5.3,7.49-2.32,2.08-5.18,3.69-8.56,4.84-3.38,1.15-7.21,1.72-11.49,1.72-8.87,0-17.08-2.63-24.65-7.9l7.81-14.7c2.73,2.42,5.42,4.22,8.09,5.4,2.67,1.18,5.3,1.77,7.91,1.77,2.98,0,5.19-.68,6.65-2.04s2.19-2.92,2.19-4.65c0-1.05-.19-1.97-.56-2.75-.37-.77-.99-1.49-1.86-2.14-.87-.65-2-1.26-3.4-1.81-1.39-.56-3.08-1.18-5.07-1.86-2.36-.74-4.67-1.57-6.93-2.46-2.26-.9-4.28-2.09-6.05-3.58-1.77-1.49-3.19-3.36-4.28-5.62-1.08-2.26-1.63-5.13-1.63-8.6s.57-6.62,1.72-9.44c1.15-2.82,2.76-5.24,4.84-7.26,2.08-2.01,4.62-3.58,7.63-4.7,3.01-1.12,6.37-1.68,10.09-1.68,3.47,0,7.1.48,10.88,1.44,3.78.96,7.41,2.37,10.88,4.23l-7.26,14.23Z"/><path class="cls-1" d="m340.54,94.76v54.69h21.85v15.44h-40.08v-70.13h18.23Z"/><path class="cls-1" d="m410.48,94.76v70.13h-18.23v-70.13h18.23Z"/><path class="cls-1" d="m496.14,118.19c-4.22-5.15-9.43-7.72-15.63-7.72-2.73,0-5.25.5-7.58,1.49-2.32.99-4.32,2.34-6,4.05-1.67,1.71-2.99,3.73-3.95,6.09-.96,2.35-1.44,4.9-1.44,7.62s.48,5.37,1.44,7.72c.96,2.36,2.29,4.4,4,6.14,1.7,1.74,3.7,3.1,6,4.09,2.29.99,4.77,1.49,7.44,1.49,5.83,0,11.07-2.48,15.72-7.44v21.58l-1.86.65c-2.79.99-5.39,1.72-7.81,2.19-2.42.46-4.81.7-7.16.7-4.84,0-9.47-.92-13.91-2.74s-8.34-4.4-11.72-7.72c-3.38-3.32-6.09-7.26-8.14-11.81-2.05-4.56-3.07-9.53-3.07-14.93s1.01-10.34,3.02-14.83c2.01-4.5,4.71-8.37,8.09-11.63,3.38-3.26,7.3-5.8,11.77-7.63,4.46-1.83,9.15-2.74,14.04-2.74,2.79,0,5.53.3,8.23.88,2.7.59,5.53,1.5,8.51,2.74v21.76Z"/><path class="cls-1" d="m549.34,123.68l22.23-28.92h22.51l-27.81,33.2,30.41,36.92h-23.62l-23.72-30.41v30.41h-18.23v-70.13h18.23v28.92Z"/><path class="cls-1" d="m665.13,110.19h-21.67v11.72h20.46v15.44h-20.46v12.09h21.67v15.44h-39.9v-70.13h39.9v15.44Z"/><path class="cls-1" d="m757.02,164.88h-22.69l-17.39-26.97v26.97h-18.23v-70.13h28.37c3.91,0,7.31.57,10.23,1.72,2.92,1.15,5.32,2.71,7.21,4.7,1.89,1.99,3.32,4.28,4.28,6.88.96,2.6,1.44,5.39,1.44,8.37,0,5.33-1.29,9.66-3.86,12.98-2.57,3.32-6.37,5.57-11.39,6.74l22.04,28.74Zm-40.08-38.79h3.44c3.6,0,6.36-.74,8.28-2.23,1.92-1.49,2.88-3.63,2.88-6.42s-.96-4.93-2.88-6.42c-1.92-1.49-4.68-2.23-8.28-2.23h-3.44v17.3Z"/><polygon class="cls-4" points="169 46.33 111.17 78.88 110.86 12.52 169 46.33"/><polygon class="cls-5" points="111.16 78.88 53.32 111.43 53.02 45.07 111.16 78.88"/><polygon class="cls-3" points="111.16 78.88 53.02 45.07 110.86 12.51 111.16 78.88"/><polygon class="cls-2" points="111.46 145.26 53.32 111.44 53.32 111.43 111.16 78.89 111.46 145.26"/><polygon class="cls-5" points="111.46 145.26 53.63 177.81 53.32 111.44 111.46 145.26"/><polygon class="cls-3" points="73.85 194.35 131.68 161.81 131.99 228.17 73.85 194.35"/><polygon class="cls-2" points="131.69 161.8 189.53 129.26 189.83 195.62 131.69 161.8"/><polygon class="cls-5" points="131.69 161.8 189.83 195.62 131.99 228.17 131.69 161.8"/><polygon class="cls-5" points="131.38 95.43 189.53 129.25 189.53 129.26 131.69 161.8 131.38 95.43"/><polygon class="cls-2" points="131.38 95.43 189.22 62.88 189.53 129.25 131.38 95.43"/></svg>